<svg xmlns="http://www.w3.org/2000/svg" viewBox="0 0 300 80" fill="none">
  <!-- Badge/crest shape -->
  <path d="M30 5 L60 5 Q65 5 65 10 L65 50 Q65 55 60 58 L45 70 Q42 72 39 72 L30 72 Q27 72 24 70 L9 58 Q4 55 4 50 L4 10 Q4 5 9 5 Z" stroke="white" stroke-width="1.2" fill="none" opacity="0.3"/>
  <!-- Inner accent -->
  <path d="M30 12 L55 12 L55 45 L42 55 L27 55 L14 45 L14 12 Z" fill="#14b8a6" opacity="0.08"/>
  <!-- 90 in badge -->
  <text x="22" y="42" font-family="Inter, Helvetica, Arial, sans-serif" font-size="24" font-weight="900" fill="white">90</text>
  <!-- Star above -->
  <polygon points="37,8 38.5,11 42,11 39.5,13 40.5,16 37,14.5 33.5,16 34.5,13 32,11 35.5,11" fill="#14b8a6" opacity="0.7"/>
  <!-- NOVENTA text -->
  <text x="80" y="42" font-family="Inter, Helvetica, Arial, sans-serif" font-size="36" font-weight="700" letter-spacing="5" fill="white">NOVENTA</text>
  <!-- Subtitle -->
  <text x="80" y="60" font-family="Inter, Helvetica, Arial, sans-serif" font-size="9" font-weight="400" letter-spacing="4" fill="#14b8a6" opacity="0.7">FOOTBALL WEAR</text>
</svg>
